<svg width="18" height="13" viewBox="0 0 18 13" fill="none" xmlns="http://www.w3.org/2000/svg">
<path d="M16.2278 12.4724H1.77216C1.30229 12.4718 0.851821 12.2849 0.519588 11.9526C0.187355 11.6204 0.000493018 11.1699 0 10.7V1.77233C0.000493018 1.30246 0.187355 0.851973 0.519588 0.519708C0.851821 0.187443 1.30229 0.000537915 1.77216 0H16.2278C16.6977 0.000537915 17.1482 0.187443 17.4804 0.519708C17.8126 0.851973 17.9995 1.30246 18 1.77233V10.7C17.9995 11.1699 17.8126 11.6204 17.4804 11.9526C17.1482 12.2849 16.6977 12.4718 16.2278 12.4724ZM1.77216 0.677367C1.48187 0.67768 1.20356 0.793149 0.998311 0.998431C0.793061 1.20371 0.677635 1.48204 0.677367 1.77233V10.7C0.677635 10.9903 0.793061 11.2686 0.998311 11.4739C1.20356 11.6792 1.48187 11.7947 1.77216 11.795H16.2278C16.5181 11.7947 16.7964 11.6792 17.0017 11.4739C17.2069 11.2686 17.3224 10.9903 17.3226 10.7V1.77233C17.3224 1.48204 17.2069 1.20371 17.0017 0.998431C16.7964 0.793149 16.5181 0.67768 16.2278 0.677367H1.77216Z" fill="black"/>
<path d="M9 8.22948C8.91744 8.22953 8.83771 8.19942 8.77579 8.14481L0.613525 0.939666L1.06177 0.431641L9 7.43967L16.9386 0.432488L17.3868 0.940512L9.22455 8.14566C9.16247 8.20012 9.08258 8.22994 9 8.22948Z" fill="black"/>
<path d="M0.429443 11.4092L5.91277 5.16151L6.42215 5.60857L0.938823 11.8562L0.429443 11.4092Z" fill="black"/>
<path d="M11.5951 5.60156L12.1045 5.1545L17.5879 11.4023L17.0785 11.8494L11.5951 5.60156Z" fill="black"/>
</svg>
