<svg width="96" height="96" viewBox="0 0 96 96" fill="none" xmlns="http://www.w3.org/2000/svg">
<path d="M70 16C70 18.6522 71.0536 21.1957 72.9289 23.0711C74.8043 24.9464 77.3478 26 80 26C82.6522 26 85.1957 24.9464 87.0711 23.0711C88.9464 21.1957 90 18.6522 90 16C90 13.3478 88.9464 10.8043 87.0711 8.92893C85.1957 7.05357 82.6522 6 80 6C77.3478 6 74.8043 7.05357 72.9289 8.92893C71.0536 10.8043 70 13.3478 70 16Z" stroke="#979757" stroke-width="3" stroke-linecap="round" stroke-linejoin="round"/>
<path d="M44 32C44 34.6522 42.9464 37.1957 41.0711 39.0711C39.1957 40.9464 36.6522 42 34 42C31.3478 42 28.8043 40.9464 26.9289 39.0711C25.0536 37.1957 24 34.6522 24 32C24 29.3478 25.0536 26.8043 26.9289 24.9289C28.8043 23.0536 31.3478 22 34 22C36.6522 22 39.1957 23.0536 41.0711 24.9289C42.9464 26.8043 44 29.3478 44 32Z" stroke="#979757" stroke-width="3" stroke-linecap="round" stroke-linejoin="round"/>
<path d="M7 70C12.816 58.98 21.632 47.21 27.594 39.74M76 56C76 58.6522 74.9464 61.1957 73.0711 63.0711C71.1957 64.9464 68.6522 66 66 66C63.3478 66 60.8043 64.9464 58.9289 63.0711C57.0536 61.1957 56 58.6522 56 56C56 53.3478 57.0536 50.8043 58.9289 48.9289C60.8043 47.0536 63.3478 46 66 46C68.6522 46 71.1957 47.0536 73.0711 48.9289C74.9464 50.8043 76 53.3478 76 56Z" stroke="#979757" stroke-width="3" stroke-linecap="round" stroke-linejoin="round"/>
<path d="M41.482 38.73C47.02 43.304 52.972 47.514 57.624 50.632M68.768 46.456C71.248 38.548 74.048 30.956 76.232 25.328M6 6C6 38.61 6.602 70.618 6.872 83.3C6.90071 84.8367 7.52395 86.3025 8.61075 87.3893C9.69755 88.4761 11.1633 89.0993 12.7 89.128C25.382 89.398 57.39 90 90 90" stroke="#979757" stroke-width="3" stroke-linecap="round" stroke-linejoin="round"/>
</svg>
